<mxfile host="app.diagrams.net" modified="2023-07-24T18:40:43.924Z" agent="Mozilla/5.0 (Macintosh; Intel Mac OS X 10_15_7) AppleWebKit/537.36 (KHTML, like Gecko) Chrome/114.0.0.0 Safari/537.36" etag="F1tvUDPnEzVun5h6n5G1" version="21.6.3" type="github">
  <diagram name="Page-1" id="O4sZU61XpQ_EIpYliqsA">
    <mxGraphModel dx="2680" dy="660" grid="1" gridSize="10" guides="1" tooltips="1" connect="1" arrows="1" fold="1" page="1" pageScale="1" pageWidth="1654" pageHeight="2336" math="0" shadow="0">
      <root>
        <mxCell id="0" />
        <mxCell id="1" parent="0" />
        <mxCell id="HdUgAZZ1betd2VhNjsGC-8" style="edgeStyle=orthogonalEdgeStyle;rounded=0;orthogonalLoop=1;jettySize=auto;html=1;entryX=0.5;entryY=0;entryDx=0;entryDy=0;" edge="1" parent="1" source="HdUgAZZ1betd2VhNjsGC-7" target="HdUgAZZ1betd2VhNjsGC-10">
          <mxGeometry relative="1" as="geometry">
            <mxPoint x="130" y="310" as="targetPoint" />
            <Array as="points">
              <mxPoint x="130" y="290" />
              <mxPoint x="131" y="290" />
            </Array>
          </mxGeometry>
        </mxCell>
        <mxCell id="HdUgAZZ1betd2VhNjsGC-1" value="Consumer ConsumeClaim&lt;br&gt;Thread" style="rounded=0;whiteSpace=wrap;html=1;" vertex="1" parent="1">
          <mxGeometry x="70" y="130" width="120" height="60" as="geometry" />
        </mxCell>
        <mxCell id="HdUgAZZ1betd2VhNjsGC-2" value="Receiver Thread" style="text;html=1;align=center;verticalAlign=middle;resizable=0;points=[];autosize=1;strokeColor=none;fillColor=none;" vertex="1" parent="1">
          <mxGeometry x="75" y="90" width="110" height="30" as="geometry" />
        </mxCell>
        <mxCell id="HdUgAZZ1betd2VhNjsGC-26" style="edgeStyle=orthogonalEdgeStyle;rounded=0;orthogonalLoop=1;jettySize=auto;html=1;entryX=0.5;entryY=0;entryDx=0;entryDy=0;" edge="1" parent="1" source="HdUgAZZ1betd2VhNjsGC-3" target="HdUgAZZ1betd2VhNjsGC-15">
          <mxGeometry relative="1" as="geometry" />
        </mxCell>
        <mxCell id="HdUgAZZ1betd2VhNjsGC-3" value="Synchronizer Thread" style="rounded=0;whiteSpace=wrap;html=1;" vertex="1" parent="1">
          <mxGeometry x="440" y="130" width="120" height="60" as="geometry" />
        </mxCell>
        <mxCell id="HdUgAZZ1betd2VhNjsGC-4" value="If no new message is received in X interval,&lt;br&gt;&amp;nbsp;existing messages in buffer will be &lt;br&gt;processed by this thread" style="text;html=1;align=center;verticalAlign=middle;resizable=0;points=[];autosize=1;strokeColor=none;fillColor=none;" vertex="1" parent="1">
          <mxGeometry x="260" y="190" width="250" height="60" as="geometry" />
        </mxCell>
        <mxCell id="HdUgAZZ1betd2VhNjsGC-12" style="edgeStyle=orthogonalEdgeStyle;rounded=0;orthogonalLoop=1;jettySize=auto;html=1;entryX=0;entryY=0.5;entryDx=0;entryDy=0;" edge="1" parent="1" source="HdUgAZZ1betd2VhNjsGC-10" target="HdUgAZZ1betd2VhNjsGC-1">
          <mxGeometry relative="1" as="geometry">
            <mxPoint x="10" y="160" as="targetPoint" />
            <Array as="points">
              <mxPoint x="10" y="510" />
              <mxPoint x="10" y="160" />
            </Array>
          </mxGeometry>
        </mxCell>
        <mxCell id="HdUgAZZ1betd2VhNjsGC-16" style="edgeStyle=orthogonalEdgeStyle;rounded=0;orthogonalLoop=1;jettySize=auto;html=1;" edge="1" parent="1" source="HdUgAZZ1betd2VhNjsGC-10">
          <mxGeometry relative="1" as="geometry">
            <mxPoint x="430" y="350" as="targetPoint" />
            <Array as="points">
              <mxPoint x="130" y="570" />
              <mxPoint x="330" y="570" />
              <mxPoint x="330" y="350" />
            </Array>
          </mxGeometry>
        </mxCell>
        <mxCell id="HdUgAZZ1betd2VhNjsGC-10" value="Buffer Full?" style="rhombus;whiteSpace=wrap;html=1;" vertex="1" parent="1">
          <mxGeometry x="90" y="470" width="80" height="80" as="geometry" />
        </mxCell>
        <mxCell id="HdUgAZZ1betd2VhNjsGC-13" value="" style="edgeStyle=orthogonalEdgeStyle;rounded=0;orthogonalLoop=1;jettySize=auto;html=1;entryX=0.5;entryY=0;entryDx=0;entryDy=0;" edge="1" parent="1" source="HdUgAZZ1betd2VhNjsGC-1" target="HdUgAZZ1betd2VhNjsGC-7">
          <mxGeometry relative="1" as="geometry">
            <mxPoint x="130" y="190" as="sourcePoint" />
            <mxPoint x="130" y="310" as="targetPoint" />
          </mxGeometry>
        </mxCell>
        <mxCell id="HdUgAZZ1betd2VhNjsGC-7" value="Acquires lock&lt;br&gt;to buffer" style="text;html=1;align=center;verticalAlign=middle;resizable=0;points=[];autosize=1;strokeColor=none;fillColor=none;" vertex="1" parent="1">
          <mxGeometry x="85" y="230" width="90" height="40" as="geometry" />
        </mxCell>
        <mxCell id="HdUgAZZ1betd2VhNjsGC-14" value="No" style="text;html=1;align=center;verticalAlign=middle;resizable=0;points=[];autosize=1;strokeColor=none;fillColor=none;" vertex="1" parent="1">
          <mxGeometry x="30" y="470" width="40" height="30" as="geometry" />
        </mxCell>
        <mxCell id="HdUgAZZ1betd2VhNjsGC-31" style="edgeStyle=orthogonalEdgeStyle;rounded=0;orthogonalLoop=1;jettySize=auto;html=1;exitX=1;exitY=0;exitDx=0;exitDy=0;entryX=0;entryY=0.25;entryDx=0;entryDy=0;" edge="1" parent="1" source="HdUgAZZ1betd2VhNjsGC-15" target="HdUgAZZ1betd2VhNjsGC-27">
          <mxGeometry relative="1" as="geometry" />
        </mxCell>
        <mxCell id="HdUgAZZ1betd2VhNjsGC-32" style="edgeStyle=orthogonalEdgeStyle;rounded=0;orthogonalLoop=1;jettySize=auto;html=1;exitX=1;exitY=0.5;exitDx=0;exitDy=0;entryX=0;entryY=0.5;entryDx=0;entryDy=0;" edge="1" parent="1" source="HdUgAZZ1betd2VhNjsGC-15" target="HdUgAZZ1betd2VhNjsGC-29">
          <mxGeometry relative="1" as="geometry" />
        </mxCell>
        <mxCell id="HdUgAZZ1betd2VhNjsGC-33" style="edgeStyle=orthogonalEdgeStyle;rounded=0;orthogonalLoop=1;jettySize=auto;html=1;exitX=1;exitY=1;exitDx=0;exitDy=0;entryX=0;entryY=0.75;entryDx=0;entryDy=0;" edge="1" parent="1" source="HdUgAZZ1betd2VhNjsGC-15" target="HdUgAZZ1betd2VhNjsGC-30">
          <mxGeometry relative="1" as="geometry" />
        </mxCell>
        <mxCell id="HdUgAZZ1betd2VhNjsGC-15" value="Assign Worker Thread" style="whiteSpace=wrap;html=1;" vertex="1" parent="1">
          <mxGeometry x="440" y="320" width="120" height="60" as="geometry" />
        </mxCell>
        <mxCell id="HdUgAZZ1betd2VhNjsGC-17" value="Yes" style="text;html=1;align=center;verticalAlign=middle;resizable=0;points=[];autosize=1;strokeColor=none;fillColor=none;" vertex="1" parent="1">
          <mxGeometry x="220" y="540" width="40" height="30" as="geometry" />
        </mxCell>
        <mxCell id="HdUgAZZ1betd2VhNjsGC-19" value="" style="endArrow=classic;html=1;rounded=0;entryX=0.425;entryY=-0.05;entryDx=0;entryDy=0;entryPerimeter=0;" edge="1" parent="1">
          <mxGeometry width="50" height="50" relative="1" as="geometry">
            <mxPoint x="185" y="13" as="sourcePoint" />
            <mxPoint x="186" y="130" as="targetPoint" />
          </mxGeometry>
        </mxCell>
        <mxCell id="HdUgAZZ1betd2VhNjsGC-20" value="" style="endArrow=classic;html=1;rounded=0;entryX=0.425;entryY=-0.05;entryDx=0;entryDy=0;entryPerimeter=0;" edge="1" parent="1">
          <mxGeometry width="50" height="50" relative="1" as="geometry">
            <mxPoint x="480" y="13" as="sourcePoint" />
            <mxPoint x="481" y="130" as="targetPoint" />
          </mxGeometry>
        </mxCell>
        <mxCell id="HdUgAZZ1betd2VhNjsGC-21" value="Acquires lock &lt;br&gt;to buffer" style="text;html=1;align=center;verticalAlign=middle;resizable=0;points=[];autosize=1;strokeColor=none;fillColor=none;" vertex="1" parent="1">
          <mxGeometry x="500" y="200" width="90" height="40" as="geometry" />
        </mxCell>
        <mxCell id="HdUgAZZ1betd2VhNjsGC-22" value="iii) release buffer lock" style="text;html=1;align=center;verticalAlign=middle;resizable=0;points=[];autosize=1;strokeColor=none;fillColor=none;" vertex="1" parent="1">
          <mxGeometry x="-155" y="375" width="140" height="30" as="geometry" />
        </mxCell>
        <mxCell id="HdUgAZZ1betd2VhNjsGC-23" value="Polls internally with sleep" style="text;html=1;align=center;verticalAlign=middle;resizable=0;points=[];autosize=1;strokeColor=none;fillColor=none;" vertex="1" parent="1">
          <mxGeometry x="480" y="40" width="160" height="30" as="geometry" />
        </mxCell>
        <mxCell id="HdUgAZZ1betd2VhNjsGC-27" value="Worker 1" style="whiteSpace=wrap;html=1;" vertex="1" parent="1">
          <mxGeometry x="680" y="270" width="120" height="60" as="geometry" />
        </mxCell>
        <mxCell id="HdUgAZZ1betd2VhNjsGC-29" value="Worker 2" style="whiteSpace=wrap;html=1;" vertex="1" parent="1">
          <mxGeometry x="680" y="370" width="120" height="60" as="geometry" />
        </mxCell>
        <mxCell id="HdUgAZZ1betd2VhNjsGC-30" value="Worker 3" style="whiteSpace=wrap;html=1;" vertex="1" parent="1">
          <mxGeometry x="680" y="480" width="120" height="60" as="geometry" />
        </mxCell>
        <mxCell id="HdUgAZZ1betd2VhNjsGC-34" value="i) Worker threads are configurable using configs" style="text;html=1;align=center;verticalAlign=middle;resizable=0;points=[];autosize=1;strokeColor=none;fillColor=none;" vertex="1" parent="1">
          <mxGeometry x="820" y="355" width="280" height="30" as="geometry" />
        </mxCell>
        <mxCell id="HdUgAZZ1betd2VhNjsGC-35" value="ii) Worker 2 will be used only if worker 1 is &lt;br&gt;busy and a new db batch is ready" style="text;html=1;align=center;verticalAlign=middle;resizable=0;points=[];autosize=1;strokeColor=none;fillColor=none;" vertex="1" parent="1">
          <mxGeometry x="820" y="390" width="250" height="40" as="geometry" />
        </mxCell>
        <mxCell id="HdUgAZZ1betd2VhNjsGC-36" value="i) Get existing buffer" style="text;html=1;align=center;verticalAlign=middle;resizable=0;points=[];autosize=1;strokeColor=none;fillColor=none;" vertex="1" parent="1">
          <mxGeometry x="400" y="385" width="130" height="30" as="geometry" />
        </mxCell>
        <mxCell id="HdUgAZZ1betd2VhNjsGC-37" value="ii) Allocate a new buffer for &lt;br&gt;new incoming batch" style="text;html=1;align=center;verticalAlign=middle;resizable=0;points=[];autosize=1;strokeColor=none;fillColor=none;" vertex="1" parent="1">
          <mxGeometry x="400" y="415" width="160" height="40" as="geometry" />
        </mxCell>
        <mxCell id="HdUgAZZ1betd2VhNjsGC-38" value="iii) Release buffer lock" style="text;html=1;align=center;verticalAlign=middle;resizable=0;points=[];autosize=1;strokeColor=none;fillColor=none;" vertex="1" parent="1">
          <mxGeometry x="400" y="455" width="140" height="30" as="geometry" />
        </mxCell>
        <mxCell id="HdUgAZZ1betd2VhNjsGC-39" value="iv) New messages will &lt;br&gt;go in new buffer" style="text;html=1;align=center;verticalAlign=middle;resizable=0;points=[];autosize=1;strokeColor=none;fillColor=none;" vertex="1" parent="1">
          <mxGeometry x="400" y="480" width="140" height="40" as="geometry" />
        </mxCell>
        <mxCell id="HdUgAZZ1betd2VhNjsGC-40" value="iii) If all workers are busy, &lt;br&gt;code will block the caller &lt;br&gt;thread (consumer/sync thread)&lt;br&gt;&amp;nbsp;and wait for a thread to get free&amp;nbsp;" style="text;html=1;align=left;verticalAlign=middle;resizable=0;points=[];autosize=1;strokeColor=none;fillColor=none;" vertex="1" parent="1">
          <mxGeometry x="827" y="430" width="200" height="70" as="geometry" />
        </mxCell>
        <mxCell id="HdUgAZZ1betd2VhNjsGC-41" value="i) Add message to buffer" style="text;html=1;align=center;verticalAlign=middle;resizable=0;points=[];autosize=1;strokeColor=none;fillColor=none;" vertex="1" parent="1">
          <mxGeometry x="-155" y="308" width="150" height="30" as="geometry" />
        </mxCell>
        <mxCell id="HdUgAZZ1betd2VhNjsGC-42" value="ii) update last msg&lt;br&gt;receive time" style="text;html=1;align=center;verticalAlign=middle;resizable=0;points=[];autosize=1;strokeColor=none;fillColor=none;" vertex="1" parent="1">
          <mxGeometry x="-155" y="340" width="120" height="40" as="geometry" />
        </mxCell>
      </root>
    </mxGraphModel>
  </diagram>
</mxfile>
